<?xml version="1.0" encoding="utf-8"?>
<!-- Generator: Adobe Illustrator 25.0.1, SVG Export Plug-In . SVG Version: 6.00 Build 0)  -->
<svg version="1.0" id="Layer_1" xmlns="http://www.w3.org/2000/svg" xmlns:xlink="http://www.w3.org/1999/xlink" x="0px" y="0px"
	 viewBox="0 0 1058.9 812" style="enable-background:new 0 0 1058.9 812;" xml:space="preserve">
<style type="text/css">
	.st0{fill:#C5852B;}
	.st1{fill:#1C1C1A;}
	.st2{fill:#E8151E;}
	.st3{fill:#153178;}
	.st4{fill:#7B2524;}
</style>
<path class="st0" d="M372.3,77.2c0,18.4,0,25.9,0.1,16.8s0-24.1,0-33.4S372.3,58.8,372.3,77.2z"/>
<path class="st1" d="M372.5,77.2c0,27.3,0,33.3,0.3,33.1c0.3-0.2,7.4-5.1,16-11.1l15.6-10.8V67.1c-24.1-17.8-31.3-23-31.5-23
	S372.5,46.8,372.5,77.2z"/>
<path class="st0" d="M316.4,112.3c0,26.6,0,37.5,0.1,24.1c0.1-13.4,0-35.2,0-48.4S316.4,85.7,316.4,112.3z"/>
<path class="st2" d="M316.6,64l0.8,0.6c0.4,0.3,7.6,5.6,31.2,23v48c0,26.4-0.1,48-0.2,48c-0.1,0-7.2-5.2-31.8-23L316.6,64z
	 M580.8,74.3c2.1,0,4.1,0.2,6.2,0.5c1.2,0.2,3.3,0.7,4.8,1.1c1.8,0.5,3.6,1.2,5.3,2c1.5,0.7,3,1.6,4.4,2.5c0.8,0.7,2.1,1.6,2.9,2.2
	c1.1,1,2.1,2,3,3.2c0.9,1.1,2.2,2.7,2.8,3.6c0.6,0.9,1.6,2.7,2.2,4c0.7,1.3,1.5,3.6,2,5.1c0.5,1.5,0.9,3.1,1.2,4.6
	c0.2,1,0.5,3.2,0.7,4.7c0.3,3.9,0.5,7.9,0.4,11.9h-53.3l0.1,1.3c0.1,0.8,0.3,2.1,0.5,3.1c0.2,1.1,0.6,2.1,1,3.2
	c0.4,1,0.9,1.9,1.5,2.8c0.7,0.9,1.5,1.8,2.3,2.6c1,0.9,2.1,1.6,3.4,2.2c1.1,0.5,2.3,0.9,3.5,1.3c0.9,0.2,2.3,0.4,3.2,0.5
	c1.3,0.1,2.7,0,4-0.1c1.2-0.1,2.4-0.4,3.6-0.7c0.9-0.3,1.7-0.7,2.5-1.2c0.9-0.6,1.7-1.2,2.5-2c0.7-0.7,1.5-1.9,2.9-4.9h22.2
	l-0.6,1.8c-0.3,1-1.1,2.8-1.7,4c-0.7,1.5-1.6,3-2.5,4.4c-1.1,1.6-2.4,3.1-3.8,4.5c-1.4,1.4-2.9,2.6-4.5,3.8
	c-1.2,0.8-2.7,1.7-3.5,2.1c-0.8,0.4-2.2,1-3,1.3c-0.9,0.3-2.6,0.9-3.8,1.3c-1.2,0.4-3.3,0.8-4.6,1c-2.2,0.3-4.3,0.5-6.5,0.5
	c-2.2,0.1-4.5,0.1-6.7-0.1c-1.3-0.1-3.5-0.5-4.9-0.8c-1.3-0.3-3.5-0.9-4.8-1.3c-1.5-0.6-3-1.2-4.5-1.9c-1.1-0.6-2.8-1.6-3.7-2.2
	c-1.4-1-2.6-2-3.8-3.2c-1.4-1.4-2.7-2.8-3.9-4.4c-1.1-1.5-2.1-3.1-3-4.7c-0.9-1.7-1.6-3.5-2.2-5.3c-0.6-1.7-1.1-3.5-1.5-5.3
	c-0.4-2.1-0.7-4.2-0.8-6.3c-0.2-2.5-0.2-5.1,0-7.6c0.2-2.1,0.5-4.8,0.8-6.1c0.3-1.3,0.6-2.8,0.8-3.4s0.7-2,1.1-3.2s1.3-3,1.8-4.1
	c0.8-1.4,1.7-2.8,2.7-4.1c1.2-1.6,2.5-3,3.9-4.4c1.3-1.2,2.7-2.4,4.1-3.4c1-0.6,2.6-1.6,3.7-2.2c1.6-0.8,3.3-1.5,5-2.1
	c1.6-0.5,3.3-1,5-1.4c1.1-0.2,2.9-0.5,3.9-0.6C577,74.3,578.9,74.2,580.8,74.3z M575.2,89.9c-1.1,0.3-2.1,0.6-3.2,1.1
	c-1.4,0.7-2.6,1.6-3.6,2.7c-1.1,1.1-2.1,2.4-2.8,3.8c-0.7,1.3-1.2,2.7-1.6,4.1c-0.3,0.9-0.5,1.7-0.6,2.6c0,0.4,0.9,0.4,16,0.4h16
	c-0.1-1.3-0.3-2.5-0.7-3.7c-0.3-1.2-0.8-2.4-1.3-3.5c-0.6-1.4-1.5-2.6-2.6-3.6c-1.1-1.1-2.3-2-3.6-2.6c-1.3-0.6-2.6-1-4-1.3
	c-1.2-0.2-2.5-0.3-3.7-0.4c-0.8,0-1.6,0-2.4,0.1C576.8,89.6,576,89.8,575.2,89.9z M713.8,74.3c2.3,0,4.7,0.2,7,0.5
	c1.8,0.3,3.5,0.8,5.2,1.3c1.7,0.5,3.3,1.1,4.8,1.9c1.5,0.7,3,1.6,4.4,2.5c1.5,1.1,2.9,2.3,4.2,3.5c1.4,1.3,2.6,2.8,3.8,4.2
	c1,1.5,2,3,2.8,4.6c0.8,1.6,1.5,3.3,2.2,4.9c0.4,1.3,1,3.4,1.3,4.6c0.4,1.5,0.6,3.1,0.8,4.6c0.2,1.3,0.3,4.2,0.3,6.4
	c0,2.1-0.1,4.3-0.3,6.4c-0.1,1.3-0.5,3.4-0.8,4.6c-0.3,1.5-0.7,2.9-1.2,4.4c-0.5,1.5-1.2,3-1.9,4.5c-0.7,1.3-1.4,2.7-2.2,3.9
	c-0.8,1.2-1.7,2.3-2.7,3.4c-1,1.2-2.2,2.3-3.4,3.4c-1.2,1-2.4,1.9-3.6,2.7c-1.3,0.8-2.6,1.5-4,2.2c-1.2,0.5-3,1.3-4.1,1.7
	c-1.1,0.4-2.9,0.8-4.1,1.1c-1.2,0.3-3.2,0.6-4.3,0.7c-1.2,0.1-3.6,0.2-5.3,0.2s-4.1-0.1-5.2-0.2c-1.1-0.1-2.9-0.4-4-0.6
	c-1.5-0.3-3-0.7-4.5-1.2c-1.7-0.6-3.3-1.2-4.9-2c-1.3-0.7-3.1-1.7-4.1-2.3c-3.4-2.5-6.4-5.6-8.9-9c-0.9-1.4-1.7-2.9-2.4-4.4
	c-0.6-1.2-1.4-3.2-1.8-4.4c-0.5-1.7-1-3.4-1.3-5.1c-0.3-1.6-0.7-4.5-0.8-6.5c-0.1-2.3-0.1-4.6,0-6.9c0.2-1.8,0.4-4.2,0.6-5.4
	c0.3-1.5,0.6-2.9,1-4.3c0.5-1.6,1-3.2,1.6-4.7c0.6-1.3,1.5-3.2,2-4.1s1.6-2.6,2.4-3.6c1.1-1.3,2.3-2.6,3.5-3.8
	c1.2-1.1,2.5-2.2,3.8-3.2c1.4-0.9,2.8-1.7,4.2-2.5c1.5-0.7,3-1.4,4.6-1.9c1.2-0.4,3.3-1,4.6-1.3s3.3-0.6,4.4-0.7
	C709.7,74.3,711.7,74.2,713.8,74.3z M706.5,91c-1,0.4-1.9,0.9-2.8,1.5c-1,0.7-1.9,1.4-2.7,2.3c-0.7,0.8-1.3,1.7-1.9,2.7
	c-0.6,1.1-1.1,2.2-1.6,3.3c-0.5,1.4-0.9,2.9-1.3,4.4c-0.5,2.2-0.5,3.2-0.5,8.2s0.1,6,0.5,8.2c0.3,1.5,0.8,2.9,1.3,4.3
	c0.5,1.2,1,2.3,1.6,3.4c0.8,1.2,1.6,2.3,2.6,3.3c1,1,2.2,1.9,3.4,2.6c1.1,0.5,2.1,1,3.3,1.3c2.9,0.5,5.8,0.5,8.7,0
	c1.1-0.3,2.2-0.8,3.3-1.3c1.3-0.7,2.4-1.6,3.4-2.6c1.1-1.1,2.1-2.4,2.8-3.8c0.6-1.2,1.2-2.5,1.6-3.7c0.3-0.9,0.7-2.4,0.9-3.5
	c0.3-1.7,0.5-3.5,0.6-5.2c0.1-2.1,0.1-4.1,0-6.2c-0.1-1.6-0.4-3.8-0.6-4.8c-0.3-1.2-0.6-2.4-1-3.6c-0.4-1.1-0.8-2.1-1.3-3.2
	c-0.4-0.8-1-1.8-1.3-2.2c-0.6-0.8-1.3-1.5-2-2.2c-0.9-0.9-2-1.7-3.1-2.3c-0.9-0.5-1.9-0.9-2.9-1.2c-1.4-0.4-2.8-0.5-4.2-0.6
	c-1.5-0.1-2.9,0-4.4,0.2C708.2,90.4,707.4,90.7,706.5,91z M661.3,74.7c2.1-0.1,4.3,0,6.4,0.3c1.2,0.2,2.7,0.5,4.1,0.8v8.5
	c0,4.7,0,8.5-0.1,8.5l-1.4-0.3c-1.4-0.2-2.9-0.3-4.4-0.3c-1.7,0-3.3,0.1-5,0.4c-1.2,0.2-2.4,0.6-3.5,1c-1.1,0.5-2.1,1-3.1,1.6
	c-1,0.6-1.9,1.4-2.7,2.1c-0.7,0.8-1.4,1.6-2,2.4c-0.5,0.8-0.9,1.7-1.3,2.6c-0.4,1.2-0.8,2.4-1,3.7c-0.4,1.8-0.6,3.5-0.7,5.3
	c-0.1,1.6-0.2,11.1-0.2,39.3h-20.6l0.1-46.8l0.6-2.7c0.3-1.5,0.9-3.7,1.3-4.9c0.4-1.2,1.3-3.5,2-5c0.9-1.8,2-3.5,3.2-5.1
	c1-1.2,2-2.3,3.1-3.4c0.9-0.8,1.9-1.5,2.9-2.2c1.1-0.7,2.1-1.4,3.3-2c1.2-0.6,2.5-1.2,3.7-1.6c1.2-0.4,3-1,4-1.2s2.8-0.5,3.9-0.7
	c1.1-0.2,2.3-0.3,2.6-0.4C656.9,74.8,659.1,74.7,661.3,74.7z M460.4,76.1H481v27.6h32.2V76.1h20.6v74.8h-20.6v-30H481v30h-20.6V76.1
	z"/>
<path class="st1" d="M388.4,128.4c-14.9,10.7-15.9,11.5-15.5,11.8c0.4,0.4,7.4,5.4,15.9,11.5c8.5,6.1,15.5,11.1,15.6,11.1
	c0.1,0,0.1-10.4,0.1-23l-0.1-22.9L388.4,128.4z"/>
<path class="st3" d="M526.3,211.8c1.8,0.1,3.5,0.3,5.2,0.6c1.2,0.3,2.4,0.7,3.5,1.2c1,0.6,2,1.3,2.8,2.1c0.8,0.8,1.4,1.6,2,2.6
	c0.4,0.9,0.7,1.9,1,2.9c0.4,2.3,0.7,4.6,0.7,6.9c0.2,2.8,0.2,6,0.1,7.1c-0.1,1.2-0.3,2.3-0.6,3.4c-0.3,0.8-0.6,1.6-1,2.4
	c-0.5,0.9-1.2,1.7-1.9,2.4c-1,0.9-2,1.7-3.2,2.2c-1.2,0.5-2.4,1-3.6,1.3c-1,0.3-2.7,0.6-3.7,0.7s-4.8,0.4-8.2,0.5l-6.4,0.3
	c0,0,0.1,4,0.3,8.8s0.3,8.7,0.3,8.7s-2.5,0.1-10.8,0.5v-0.9c0-0.5-0.5-12.5-1.1-26.5s-1-25.8-1-26.1c0.1-0.5,0.5-0.5,11.3-1
	C518.2,211.9,524.6,211.7,526.3,211.8z M511.8,221.3c0,0,0.1,3.4,0.3,7.6c0.2,4.1,0.3,8.2,0.4,9.1v1.6c5.2-0.2,8.2-0.4,10-0.5
	c1.6,0,3.2-0.3,4.7-0.6c0.8-0.3,1.6-0.7,2.2-1.3c0.5-0.5,0.9-1.1,1.2-1.8c0.2-1.3,0.3-2.6,0.3-3.9c0-1.7-0.1-3.4-0.3-5.1
	c-0.1-1.1-0.3-2.2-0.8-3.1c-0.5-0.8-1.2-1.3-2-1.7c-1.4-0.7-1.6-0.7-5-0.8c-1.9,0-5.2,0-7.3,0.2
	C513.6,221.3,511.9,221.3,511.8,221.3z M555.3,212.3c0.2,0,6.4,0.9,13.7,1.9c7.3,1.1,15,2.2,16.9,2.5c3.3,0.5,3.6,0.6,3.5,1
	c-0.1,0.3-0.4,2.2-1.2,8.4l-0.6-0.1c-0.3-0.1-5.7-0.8-11.9-1.7c-6.2-0.9-11.3-1.6-11.3-1.5s-0.5,2.9-1,6.4c-0.5,3.5-0.9,6.3-0.9,6.4
	s4.9,0.8,11,1.7s10.9,1.6,11,1.6c0.1,0-0.2,2-0.5,4.4c-0.3,2.4-0.7,4.4-0.7,4.4c0,0-5-0.7-11-1.5s-10.9-1.5-11-1.5
	c-0.1,0-0.5,3.1-1,6.9s-0.9,6.8-0.9,6.8c0,0,5.3,0.8,11.8,1.8s11.8,1.8,11.9,1.8c-0.1,1.5-0.3,2.9-0.5,4.4c-0.4,2.4-0.7,4.3-0.7,4.4
	c0,0-7.7-1.1-17-2.4c-9.3-1.3-17-2.4-17.2-2.5s0.2-3.1,0.9-8c0.6-4.4,2.3-16.2,3.8-26.4s2.7-18.6,2.7-18.7S555,212.3,555.3,212.3z
	 M482.3,215c0.1,0,2.3,8.5,4.9,18.9s4.8,19.7,5,20.8c0.1,1.1,0.1,2.2,0.1,3.4c-0.1,1.8-0.6,3.6-1.5,5.2c-0.6,1.1-1.3,2.1-2.2,3
	c-0.9,0.9-1.8,1.8-2.9,2.6c-0.9,0.6-1.9,1.2-2.9,1.7c-1,0.5-2.1,1-3.1,1.4c-0.9,0.4-3,1-4.6,1.4c-1.9,0.5-3.9,0.8-5.8,1
	c-1.7,0.2-3.4,0.2-5.1,0c-1.1-0.1-2.2-0.4-3.3-0.7c-0.6-0.2-1.8-0.7-2.6-1.1c-2.6-1.4-4.6-3.6-5.9-6.2c-1.1-2.1-1.5-3.7-5.9-21.3
	c-2.6-10.4-4.8-19.2-4.9-19.3s0.9-0.6,5-1.6c2.8-0.7,5.1-1.3,5.2-1.2s2.2,8.5,4.8,18.7c3.2,12.6,4.9,19.1,5.4,20
	c0.4,0.8,1,1.5,1.6,2.2c0.7,0.5,1.4,0.9,2.2,1.2c1,0.2,2.1,0.3,3.1,0.3c1.4-0.1,2.9-0.3,4.3-0.6c1.3-0.3,2.6-0.8,3.8-1.4
	c0.9-0.5,1.8-1.1,2.5-1.8c0.7-0.7,1.2-1.5,1.5-2.5c0.3-0.9,0.4-1.9,0.3-2.9c-0.1-0.8-2.2-9.7-4.8-19.8s-4.6-18.4-4.5-18.5
	s2.4-0.8,5.1-1.4S482.2,215,482.3,215L482.3,215z M606.2,221c0,0,4.9,1.7,10.8,3.9s11.7,4.3,12.9,4.8c1.3,0.5,2.6,1.2,3.9,1.9
	c0.9,0.5,2.2,1.4,2.9,1.9c0.8,0.7,1.6,1.4,2.2,2.2c0.6,0.9,1.2,1.8,1.7,2.8c0.5,1.1,0.8,2.2,0.8,3.4c0,1.2,0,2.4-0.2,3.6
	c-0.4,1.8-0.9,3.6-1.6,5.3c-0.7,2-1.6,4.4-2,5.3c-0.5,1.1-1,2.1-1.6,3.1c-0.6,1-1.4,1.9-2.2,2.6c-1.4,1.4-3.2,2.4-5.2,2.6
	c-0.8,0.2-1.6,0.3-2.5,0.4c-0.4,0-0.8,0-0.8,0.1c0,0.1,1.5,5.2,3.3,11.3c1.8,6.2,3.2,11.2,3.2,11.3c0,0.1-2.7-0.8-11.9-4.2
	l-3.1-10.6c-1.7-5.8-3.1-10.6-3.1-10.6c0,0-2.2-0.8-4.8-1.7c-2.6-0.9-4.8-1.7-4.8-1.7c-0.1,0-1.5,3.7-3.1,8.3c-1.6,4.6-3,8.3-3,8.4
	s-2.2-0.7-4.9-1.7c-2.7-1-4.9-1.8-5-1.8c-0.1-0.1,2.4-7.2,5.5-15.9c3.1-8.7,7.2-20,9.1-25.3C604.5,225.3,606.1,221,606.2,221
	L606.2,221z M612.9,233.8c-0.1,0.4-1.5,4.1-2.9,8.3s-2.8,7.8-2.8,7.9c0,0.2,0.2,0.5,0.8,0.7s3.5,1.2,6.7,2.4
	c2.4,0.9,4.8,1.6,7.3,2.2c0.9,0.1,1.7,0.1,2.5-0.2c0.8-0.3,1.5-0.8,2-1.4c0.9-1.4,1.7-3,2.2-4.6c0.6-1.6,1.1-3.2,1.6-4.8
	c0.1-0.7,0.1-1.4,0-2.1c-0.1-0.6-0.3-1.1-0.7-1.6c-0.3-0.4-0.6-0.8-1-1.1c-0.6-0.4-1.2-0.8-1.9-1.2c-0.8-0.4-4.2-1.7-7.5-2.9
	l-6.1-2.1L612.9,233.8z M425.6,232.4c0.3,0,0.7,0.8,1.7,4c1.2,3.9,1.3,4.1,0.8,4.2c-0.3,0.1-1.5,0.5-2.8,0.8s-3.3,1.1-4.6,1.5
	s-3.3,1.3-4.5,1.8c-1.4,0.6-2.7,1.3-4,2c-0.9,0.5-1.8,1.1-2.6,1.8c-0.5,0.4-0.9,0.9-1.2,1.5c-0.3,0.6-0.4,1.3-0.2,2
	c0.3,1.4,0.7,2.7,1.4,3.9c0.5,1.2,1.2,2.2,2.1,3.1c0.8,0.5,1,0.6,2.7,0.6c1.2-0.1,2.4-0.2,3.6-0.4c1-0.2,3.7-0.8,6-1.3
	c2.5-0.6,5-0.9,7.5-1c3.1-0.1,3.5,0,4.8,0.4c1.1,0.4,2.1,1.1,2.9,2c1.2,1.2,1.8,2.2,3.4,5.3c1,2.1,2.2,4.7,2.5,5.7
	c0.5,1.4,0.7,2.9,0.6,4.4c0,2.4-0.1,2.6-0.8,4.2c-0.6,1.2-1.5,2.3-2.4,3.3c-1.2,1.1-2.5,2.2-3.9,3.1c-1.7,1.1-3.4,2.1-5.2,3
	c-1.6,0.8-4,1.9-5.3,2.4c-1.9,0.7-3.9,1.3-5.9,1.8c-1.9,0.5-4.4,1-5.4,1.1s-2,0.2-2,0.2s-0.4-1.7-0.8-3.7s-0.8-3.8-0.9-4
	s0-0.4,0.3-0.4s1.7-0.3,3.2-0.6s4.1-1.1,5.7-1.6s3.7-1.3,4.7-1.8s2.6-1.2,3.7-1.8c1.1-0.6,2.1-1.3,2.9-2.1c0.7-0.5,1.1-1.3,1.3-2.1
	c0.1-0.7,0-1.4-0.1-2.1c-0.3-1.1-0.8-2.2-1.3-3.2c-0.5-1-1-2-1.7-2.9c-0.5-0.5-1-0.9-1.6-1.1c-0.8-0.2-1.5-0.2-2.3-0.1
	c-0.8,0.1-3.9,0.7-6.9,1.4s-6.6,1.3-7.9,1.5c-1.2,0.1-2.4,0.2-3.7,0.1c-0.8-0.1-1.6-0.3-2.4-0.5c-0.9-0.3-1.6-0.7-2.4-1.3
	c-0.8-0.7-1.6-1.5-2.2-2.4c-0.9-1.3-1.7-2.7-2.4-4.2c-0.7-1.3-1.3-2.7-1.8-4.1c-0.3-1-0.6-2-0.8-3c-0.2-0.9-0.2-1.8-0.1-2.6
	c0.1-0.6,0.4-1.6,0.6-2.3c0.3-0.8,0.7-1.6,1.2-2.4c0.5-0.8,1.1-1.6,1.8-2.3c0.9-0.8,1.8-1.6,2.8-2.4c1.8-1.2,3.8-2.3,5.8-3.3
	c2.3-1.1,5.5-2.5,7.1-3.2s4.3-1.5,5.8-1.9C423.4,232.9,424.5,232.6,425.6,232.4L425.6,232.4z M678.4,253l2.3,1.6
	c1.3,0.9,3.3,2.3,6.6,4.6l-6.2,8.9c-3.4,4.9-9.2,13.2-12.8,18.5s-6.6,9.6-6.5,9.7c0.1,0.1,4.4,3.1,9.5,6.6c5.2,3.6,9.3,6.6,9.3,6.7
	c-0.7,1.3-1.5,2.5-2.4,3.7c-0.8,1.2-1.6,2.4-2.7,3.4c-0.1,0-4-2.6-8.6-5.8s-10.8-7.5-19.3-13.5l1.5-2c0.8-1.2,7.7-11.1,15.4-22.2
	L678.4,253z M363,266c1,0.9,1.9,1.9,2.7,3c1.4,1.6,9.4,10.7,17.7,20.2c14.4,16.4,15.2,17.3,14.7,17.7c-0.2,0.2-2.6,2.3-5.3,4.6
	s-5,4.3-5.1,4.3s-9.7-3.5-21.1-8s-21-8-21.2-8c-0.1,0-0.2,0-0.2,0.1c0,0,0,0,0,0.1c0,0.1,5.7,6.8,12.8,14.8c7.1,8,13,14.8,13.1,15
	c0.1,0.2-0.3,0.9-7.6,7.3l-0.7-0.8c-0.4-0.4-8.4-9.6-17.8-20.3c-11.5-13.2-17-19.5-16.8-19.7c0.2-0.2,2.5-2.3,5.3-4.7
	c3.8-3.3,5.2-4.4,5.6-4.3c0.4,0.1,10,3.7,21.6,8.2c11.6,4.4,21.1,8,21.1,8c0,0-5.9-6.9-13.3-15.2c-7.3-8.3-13.3-15.3-13.3-15.4
	c1.2-1.3,2.4-2.4,3.8-3.5C361.1,267.5,362.9,266,363,266z"/>
<path class="st0" d="M713.5,284.8l-3.3,3.3c5.2-5,6.7-6.6,6.7-6.6s0,0-0.1,0S715.3,283,713.5,284.8z"/>
<path class="st3" d="M697.9,300.7l-19,19.2l24.8,24.6l6.3-6.4l-17.2-17.1l9.9-9.9l15.8,15.7l6.4-6.4l-15.9-15.6l9.3-9.4l17,17.1
	l6.4-6.5L717,281.5L697.9,300.7z"/>
<path class="st0" d="M730.8,295.3c2.5,2.5,4.7,4.6,4.8,4.6s-1.9-2.1-4.4-4.6s-4.6-4.6-4.7-4.6S728.3,292.8,730.8,295.3z
	 M714.5,310.2c2.5,2.5,4.5,4.5,4.6,4.5s-1.9-2-4.3-4.5s-4.5-4.5-4.6-4.5S712,307.7,714.5,310.2L714.5,310.2z M684.1,314.5l-4.4,4.4
	c6.9-6.8,8.9-8.8,8.9-8.8c0,0,0-0.1-0.1-0.1C688.5,310,686.5,312,684.1,314.5z M697.1,316.8l-4.2,4.3c6.7-6.6,8.6-8.5,8.6-8.5
	s0-0.1,0-0.1S699.4,314.4,697.1,316.8L697.1,316.8z"/>
<path class="st3" d="M307.2,322.5c0.1,0,12.4,3.9,54,16.9l-3.2,4.5c-1.8,2.5-3.2,4.5-3.3,4.5s-2.4-0.7-5.4-1.6s-5.5-1.7-5.7-1.7
	c-0.2,0-3.1,3.8-12.6,17l3,4c1.6,2.2,3.2,4.3,4,5.5l-6.5,9.1l-0.4-0.5c-0.2-0.3-7.7-10.6-16.6-22.9c-8.9-12.3-16.2-22.5-16.2-22.6
	s2-2.9,4.4-6.2C304,326.3,305.5,324.3,307.2,322.5z M317.7,344.5c4.2,5.6,7.7,10.1,7.8,10.1c0.1,0,2.1-2.9,4.6-6.3l4.5-6.2
	c-19-6.5-24.6-8.4-24.7-8.3c-0.1,0-0.1,0.1,0,0.3C310,334.3,313.5,338.9,317.7,344.5L317.7,344.5z"/>
<path class="st2" d="M506,323.9c-2.4,0.1-6.1,0.4-8.4,0.7s-6.2,0.9-8.7,1.3s-5.9,1.2-7.5,1.6s-4.5,1.2-6.4,1.8s-4.5,1.5-5.8,1.9
	s-3.5,1.3-5,2s-3.9,1.8-5.4,2.5l-2.8,1.4c-4,6.4-6,9.7-7.1,11.6s-3.3,6-4.9,9.2s-3.5,7.2-4.3,9s-2.1,5-3,7.3s-2.3,6-3.1,8.2
	s-2.1,6.2-2.9,8.7s-2,6.6-2.7,9.1s-1.9,7-2.6,10.2s-2.1,9.5-3,14.2s-1.8,8.7-1.8,8.9s0.5,1.2,2,2.8c1.2,1.3,3.7,4,5.6,6s5,5,6.9,6.6
	s4.4,3.9,5.7,4.9s2.9,2.3,3.6,2.8s2.6,1.9,4.2,3s4.2,2.9,5.8,3.9s4.8,2.9,7,4.2s6.6,3.6,9.7,5.2s8.2,4.1,11.5,5.5
	c2.1,0.9,4.1,1.8,6,2.9c0,0.1,0.1,0.2,0.2,0.1c0,0,0.1,0,0.1,0c1.6,0.5,3.1,1.1,4.6,1.8l4.4,1.9c8.3-6.5,14.1-11,18.2-14.3
	s9.6-7.7,12.2-9.9s7.4-6.2,10.6-8.9c1.9-1.7,3.8-3.3,5.9-4.7c0.1,0.1,0.1,0.1,0.1-0.1c1.4-1.6,3-3.1,4.7-4.5c2.6-2.3,6.6-6,9-8.1
	s7.2-6.8,10.9-10.3c3.7-3.6,7.7-7.5,8.9-8.7l2.2-2.2c-4.5-12.5-7.1-19.7-8.7-24s-4.1-10.8-5.6-14.5s-2.9-7.2-3.2-7.8
	s-0.9-2.2-1.6-3.7c-0.7-1.5-2.2-5.3-3.6-8.5s-3.4-7.7-4.5-10.2s-3.3-7-4.8-10.1l-2.6-5.5c-4.6-1.5-7.6-2.2-9.6-2.7s-5-1.1-6.6-1.3
	s-4.7-0.6-6.7-0.8s-5.7-0.4-8.2-0.5S508.3,323.8,506,323.9z"/>
<path class="st0" d="M684.9,325.8c0,0,2.2,2.2,4.8,4.8l4.8,4.7c-7.2-7.4-9.4-9.5-9.4-9.5S684.9,325.8,684.9,325.8z"/>
<path class="st3" d="M760.1,330.4c0.3,0,2,2.4,8.6,12.4l-0.7,0.8c-0.4,0.5-8.2,10.5-17.3,22.2s-16.7,21.5-16.8,21.6
	c-1.2-1.4-2.3-2.8-3.3-4.4c-1.1-1.6-2.1-3.2-3-4.9c0.1-0.2,1.6-2.2,3.5-4.6c1.2-1.4,2.4-3,3.4-4.5c0-0.1-2.6-4.2-11.7-17.7l-1.6,0.5
	c-0.9,0.3-3.4,1-5.5,1.6c-2.6,0.7-4,1-4.2,0.9s-1.5-2.2-3.1-4.6c-1.1-1.4-2-2.9-2.8-4.5c0.1-0.1,12.3-3.5,27.1-7.5
	S759.9,330.4,760.1,330.4z M732,348.8c0,0,1.9,3,4.2,6.5l4.3,6.5c12.4-15.1,16.2-19.7,16.4-20s0.4-0.5,0.2-0.5l-12.6,3.7
	C737.7,347.1,732,348.8,732,348.8z"/>
<path class="st0" d="M706.2,334.3c3.6,3.6,3.7,3.7,3.3,4.1s-0.4,0.5,0.2,0l0.5-0.5c-5.6-5.7-7.4-7.4-7.4-7.4
	C703.8,331.9,705,333.2,706.2,334.3z"/>
<path class="st2" d="M608.3,335.4c-0.9,0.4-3.5,1.3-5.7,2.1c-2.2,0.8-5.6,2.2-7.5,3.1c-1.9,0.9-4.6,2-5.8,2.6l-2.3,1.1
	c2,6,2.9,8.9,3.4,10.4s1.6,6.2,2.7,10.4l2,7.7c3.7,2,6.9,3.8,9.4,5.2c2.5,1.4,6.2,3.6,8.1,4.8c2,1.2,5.9,3.8,8.8,5.7l5.3,3.5
	c3.5-1.7,6-2.8,7.6-3.5s4.4-1.9,6-2.5c1.6-0.6,4.2-1.6,5.8-2.2l3.4-1.2l0.5-0.2c-0.9-4.8-1.5-7.7-1.9-9.6c-0.4-1.9-1.2-4.9-1.8-6.8
	s-1.6-5.4-2.4-7.9c-1.1-3.5-1.6-4.6-2.1-5c-0.3-0.3-2.2-1.7-4.3-3c-2-1.4-5.9-3.8-8.6-5.4c-2.8-1.6-8.1-4.5-11.9-6.5s-7-3.5-7-3.5
	S609.2,335,608.3,335.4z"/>
<path class="st3" d="M279.8,365.9l-2.5,4.8c37.2,18.8,48,24.2,48.1,24.3c1-1.5,1.9-3.1,2.6-4.7l2.5-4.8
	c-37.2-18.8-48-24.2-48.2-24.2C281.4,362.7,280.5,364.3,279.8,365.9z"/>
<path class="st4" d="M563.6,368c0,0.1,1.2,3.2,2.7,6.9c1.4,3.7,4,10.2,5.6,14.5c1.6,4.3,4.2,11.4,5.8,15.8l2.9,8.1
	c-3.5,3.5-7.6,7.5-11.4,11.2s-9.4,8.9-12.3,11.6c-3,2.8-6.9,6.2-8.8,7.8c-1.2,0.9-2.2,2-3.2,3.1c0.1,0.1,3.6,1.8,7.7,3.8l7.6,3.6
	c8.3-6.8,13-10.6,15.6-12.9c2.6-2.3,6.8-5.8,9.1-7.8s5.6-5.1,7.4-6.7s3.7-3.5,4.5-4.1l1.3-1.2c-1.6-4.7-3.2-9.1-4.6-13
	c-1.4-3.9-3.3-8.9-4.3-11.2c-1-2.4-2.8-6.6-4.1-9.4c-1.3-2.8-3.6-7.6-5-10.7l-2.8-5.7c-9.7-2.7-12.8-3.6-13.1-3.6
	C563.9,368,563.7,367.9,563.6,368z"/>
<path class="st2" d="M407.9,373.7c-2,2-4.9,5.2-6.5,7s-3.8,4.3-4.8,5.5c-1.4,1.6-2.5,3.4-3.1,5.4c-0.7,1.7-1.8,4.7-2.5,6.5
	c-0.7,1.9-2.2,6.5-3.5,10.2c-1.2,3.7-2.3,6.9-2.3,7.1c0.5,0.7,1.2,1.4,1.9,1.9c1.2,1,2.5,2,3.8,2.9l2,1.3c6.7-9,10.3-13.8,12.4-16.4
	l3.7-4.8c3.1-8.9,5.1-14.5,6.5-18s2.5-6.7,2.6-6.9s-0.2-0.6-1-1.1c-0.6-0.4-2-1.4-3.1-2.2s-2-1.6-2.2-1.8S410.3,371.3,407.9,373.7z"
	/>
<path class="st3" d="M776.7,374.2c1.2,0,2.4,0.1,3.5,0.4c0.9,0.3,1.8,0.6,2.7,1c1.1,0.7,2.2,1.5,3.1,2.4c1.2,1.1,2.3,2.4,3.2,3.7
	c0.8,1.2,1.5,2.4,2.2,3.7c0.5,1,1.4,3,2,4.5s1.3,3.7,1.8,4.9s1,3.7,1.5,5.3c0.4,1.7,0.7,3.4,0.9,5.1l-4.1,1c-2.3,0.6-4.2,1-4.2,1
	c-0.3-0.6-0.5-1.3-0.6-2c-0.3-1.1-0.8-3.3-1.3-4.8s-1.3-4.1-1.8-5.7s-1.5-3.6-1.9-4.5c-0.5-1-1-1.9-1.7-2.8c-0.6-0.8-1.4-1.5-2.4-2
	c-0.9-0.5-2-0.8-3-0.7c-1.5,0-2.5,0.4-12.6,4.4c-6.1,2.4-11.6,4.7-12.3,5.2c-0.8,0.5-1.4,1.1-2,1.9c-0.4,0.6-0.7,1.2-1,1.9
	c-0.2,0.6-0.2,1.2-0.2,1.8c0,0.9,0.2,1.8,0.4,2.7c0.4,1.4,0.9,2.9,1.5,4.2c0.6,1.4,1.6,3.5,2.2,4.5c0.3,0.7,0.7,1.4,1.2,2
	c0.1,0,3.5-1.3,7.6-3c2.5-1.1,5-2,7.6-2.8c0,0.1,0.9,2.1,1.8,4.5s1.7,4.6,1.7,4.6s-4.9,2.2-10.9,4.6c-6.9,2.8-11,4.3-11.1,4.1
	s-0.7-1-1.3-1.8s-1.8-2.8-2.8-4.4s-2.3-4.1-3-5.7s-1.8-3.9-2.2-5.1c-0.6-1.5-1.1-3-1.5-4.5c-0.5-1.8-0.7-3.7-0.8-5.6
	c-0.2-1.7-0.1-3.5,0.4-5.2c0.4-1.2,0.9-2.4,1.6-3.5c0.6-1,1.4-1.8,2.2-2.6c0.9-0.7,1.8-1.4,2.8-2c0.9-0.5,6.9-3,13.4-5.7
	s12.7-4.9,13.7-5.2C774.2,374.4,775.5,374.2,776.7,374.2z M282.5,388.6l12.9,4.3c7.1,2.3,13.8,4.6,14.8,5.2c1.2,0.6,2.3,1.4,3.3,2.4
	c0.9,0.9,1.6,1.9,2.2,3c0.5,1,0.9,2,1.2,3c0.3,1.3,0.4,2.7,0.4,4c0,1.5-0.2,3.1-0.4,4.6c-0.2,1.2-2.1,7.2-4.1,13.3
	s-3.7,11.2-3.7,11.2s-3.7-1-8.2-2.5l-43.2-14.3l3.7-11.2c2.5-7.5,4.1-11.9,4.8-13.4c0.7-1.3,1.6-2.9,2.1-3.6
	c1.4-1.9,3.1-3.5,5.1-4.7c0.8-0.4,1.6-0.8,2.4-1C276.8,388.5,277.9,388.5,282.5,388.6z M275.5,401.2c-0.6,0.6-1,1.3-1.4,2
	c-0.4,0.7-1.5,3.7-2.5,6.6c-0.6,1.8-1.2,3.6-1.6,5.5c0.1,0.1,7.8,2.6,17,5.6s16.9,5.4,17,5.3s0.9-2.7,1.9-5.7
	c1.6-4.9,1.8-5.8,1.8-7.5c0.2-1.1-0.1-2.2-0.7-3.1c-0.5-0.7-1.1-1.4-1.8-1.9c-0.7-0.5-3.8-1.7-9.2-3.5c-4.5-1.5-9.7-3.2-11.6-3.8
	c-1.6-0.6-3.2-0.9-4.8-1.1c-0.8,0-1.6,0.1-2.3,0.4C276.5,400.3,275.9,400.7,275.5,401.2L275.5,401.2z"/>
<path class="st2" d="M657.9,403.1c-1.8,1-5.7,3-8.6,4.4s-7.2,3.5-9.5,4.5s-6.9,3.1-10,4.4s-6.6,2.8-7.7,3.2
	c-0.7,0.3-1.4,0.6-2.1,0.9c-0.1,0.1-0.7,3.2-1.3,6.8c-0.6,3.7-1.5,8.4-1.8,10.6c-0.4,2.2-1.5,7.6-2.5,12s-2.4,10.5-3.1,13.5
	s-1.3,5.7-1.3,5.9c0,0.2,4.2,3.8,9.4,8.1s13.3,11.2,18.1,15.3c4.8,4.1,8.8,7.6,9,7.7c1-0.1,1.9-0.4,2.8-0.8c1.4-0.5,5.2-2.1,8.6-3.6
	c3.3-1.4,8.3-3.7,11.1-5s8-3.9,11.7-5.7s7.5-3.8,8.6-4.4l2-1c1.6-8.9,2.3-13.3,2.7-15.5s0.8-6.1,1.1-8.6s0.7-7,0.8-10
	s0.4-8.1,0.5-11.1l0.2-5.5c-7.3-6.4-10.4-9.1-11.6-10s-3.4-2.8-4.8-3.9s-4-3.1-5.7-4.4s-4.9-3.7-7.3-5.4s-4.6-3.3-5-3.6l-0.7-0.5
	L657.9,403.1z"/>
<path class="st3" d="M799.9,423.8c-2.1,0.4-10.8,1.9-19.2,3.4c-9.1,1.6-16.1,2.9-17.2,3.3c-1.1,0.4-2.2,0.9-3.3,1.5
	c-1.1,0.7-2,1.5-2.9,2.4c-0.9,0.9-1.7,2-2.3,3.2c-1.3,2.6-2,5.4-1.9,8.3c-0.1,1.8,0,3.6,0.2,5.3c0.2,1.1,0.6,3.3,0.9,4.7
	s1,3.5,1.3,4.5s1.1,2.5,1.5,3.3c0.7,1.1,1.5,2.2,2.4,3.1c0.9,0.9,1.8,1.8,2.9,2.5c0.9,0.6,1.9,1,2.9,1.4c1.3,0.4,2.7,0.7,4.1,0.7
	c2.5,0.1,3.3,0,22.2-3.3c10.8-1.9,19.7-3.5,19.7-3.6c-0.2-1.8-0.4-3.5-0.8-5.2c-0.5-2.8-1-5.2-1-5.2s-8.5,1.4-19,3.2
	c-15.7,2.7-19.2,3.3-20.7,3.2c-1,0-2-0.2-2.9-0.7c-0.7-0.4-1.3-0.9-1.8-1.5c-0.5-0.7-1-1.4-1.3-2.1c-0.4-1.1-0.8-2.3-1-3.5
	c-0.3-1.5-0.5-3-0.5-4.5c0-1.2,0.1-2.4,0.4-3.5c0.3-0.9,0.9-1.7,1.6-2.4c0.8-0.8,1.7-1.4,2.8-1.6c0.9-0.3,9.8-1.9,19.7-3.6
	s18.2-3.1,18.5-3.1c0.2,0,0.4-0.1,0.5-0.3c-0.2-1.8-0.4-3.5-0.8-5.3c-0.2-1.7-0.6-3.5-1-5.1C802.6,423.3,801.2,423.5,799.9,423.8z
	 M253.3,441.8c0,0.1-0.2,2.4-0.5,5.2c-0.2,1.7-0.4,3.4-0.4,5.1c0.1,0,7,0.8,15.5,1.6s17.4,1.7,19.9,1.9c2.5,0.2,4.6,0.5,4.8,0.6
	c0.1,0.1-9.4,4.1-21.1,8.9c-14.8,6.1-21.3,8.8-21.3,9.1s-0.3,3.4-0.7,7c-0.4,3.6-0.6,6.7-0.5,6.8s3.2,0.4,6.9,0.8l26.5,2.6
	c10.8,1,19.8,1.9,20,1.9c0.2,0,0.5-1.5,0.8-5.2c0.3-2.8,0.5-5.1,0.5-5.2s-9.1-1-20.2-2.1s-20.2-2-20.2-2.1s9.5-4,21-8.7
	s21.1-8.7,21.3-8.9c0.5-2.4,0.8-4.8,0.9-7.3c0.4-3.9,0.6-7,0.6-7c0,0-11.8-1.1-26-2.5c-14.2-1.4-26.3-2.5-26.8-2.6
	S253.4,441.7,253.3,441.8z"/>
<path class="st2" d="M371.4,445.6c-0.8,1.1-2,2.8-2.5,3.8c-0.5,1-1.3,2.5-1.7,3.4c-0.4,0.9-0.9,2.3-1.2,3.3s-0.8,3.3-1.1,5.3
	c-0.3,2-0.8,5.4-1.1,7.5c-0.3,2.1-0.6,6.1-0.9,8.8c-0.3,3.8-0.4,7.1-0.2,14.4c0.1,7.1,0.2,10.7,0.6,14.4c0.3,2.7,0.8,6.7,1.1,8.9
	c0.3,2.2,1,5.9,1.4,8.2c0.4,2.3,1.2,5.5,1.6,7.1s0.9,3.5,1.1,4.4l0.4,1.4c1-3.4,2.6-6.7,4.6-9.6c0.8-1.2,2.5-3.4,3.7-4.9l2.1-2.7
	c-0.3-2.2-0.4-7.2-0.5-12.3c-0.1-6.1,0-11.2,0.1-14.5c0.1-2.8,0.4-6.8,0.6-8.8s0.6-5.7,1-8.1l0.5-4.4c-1.1-2.5-1.3-3.4-1.2-3.6
	s0.1-0.2-0.1-0.1s-0.6-0.7-1.5-2.9c-0.6-1.7-1.5-4.1-1.9-5.3s-1-3.3-1.3-4.6s-0.8-3.6-1.1-5.1s-0.5-3.5-0.6-4.4
	c0-0.6-0.1-1.2-0.3-1.8C372.4,444.2,371.9,444.9,371.4,445.6z"/>
<path class="st4" d="M385.8,455.7l-6.1,12.1l1.5,3.4c-0.9,6.8-1.3,10.4-1.5,12.5s-0.5,6-0.6,8.8c-0.2,3.3-0.2,8.5-0.1,14.5
	c0.1,5.2,0.2,10.1,0.3,10.9l0.1,1.5c-3.3,4.1-5,6.3-5.8,7.6c-0.9,1.3-1.7,2.7-2.5,4.2c-0.6,1.2-1.1,2.5-1.6,3.7
	c-0.4,1.3-0.6,1.9-0.4,2.2c0.2,0.3,0.9,2.6,1.7,5.3c0.8,2.7,2.2,6.7,3.1,9.1s2.3,5.7,3.1,7.5s2.5,5.4,3.8,8.1
	c1.3,2.7,3.4,6.6,4.6,8.7c1.2,2.1,3.2,5.3,4.3,7.1s3.2,4.9,4.6,6.8c1.4,1.9,3.6,4.9,4.9,6.5s3.6,4.3,5,5.9s5,5.4,8.1,8.5
	s7.1,6.9,9.1,8.6s4.9,4.1,6.5,5.5c2.4,2,3.2,2.5,4,2.6c0.5,0.1,1.5,0.2,2.1,0.3l1.1,0.2c-7.3-7.3-10.9-10.9-12.5-12.7l-3.1-3.3
	c1.2-1.8,2.2-3.1,3-4.1s2.2-2.5,3-3.4c0.5-0.6,1.1-1.2,1.8-1.6c0.8,0.5,1.6,1,2.3,1.5c1.2,0.8,4.2,2.9,6.9,4.5s6.2,3.9,8,5
	s5.5,3.3,8.4,4.8s6.5,3.7,8.2,4.6c1.7,0.9,3.3,2,4.7,3.3c1.5,1.5,1.7,1.6,2.4,1.5c0.5,0,3.4-0.3,6.4-0.6s9-0.9,13.2-1.3
	s10.9-1.2,14.9-1.7s7.4-0.9,7.4-1c0.3-1.1,0.5-2.3,0.6-3.4c0.2-1.8,0.9-6.1,1.5-9.6s1.5-8.4,2-11c0.8-3.7,0.9-4.8,0.7-5
	c-0.2-0.2-2.2-1.9-4.4-3.9s-5.9-5.2-8-7.1s-4.8-4.5-6-5.6l-2.1-2c2.4-11.8,3.8-18.5,4.7-22.4s2.5-10.4,3.5-14.5c1-4.1,2.8-11,4-15.5
	s2.2-8.1,2.2-8.2c0,0,1.3-0.3,2.9-0.5l3.1-0.6c-1.1-1.5-2.2-3-3.5-4.4c-2.1-2.4-5.9-7-8.6-10.3s-6.9-8.8-9.5-12.1l-4.6-6.2
	c-8.5-3.9-13.6-6.4-17-8.1s-7.9-4.1-10.2-5.4s-5.4-3.2-7-4.2s-4.2-2.7-5.8-3.9s-3.9-2.8-5.1-3.7s-3.2-2.5-4.5-3.5s-3.4-2.9-4.7-4.1
	l-2.4-2.2c-7.3,0.2-12.6,0.2-16.5,0s-8.9-0.4-11.2-0.6s-6-0.6-8-0.9c-2.1-0.3-3.9-0.6-4-0.6C392.1,443.5,389.2,449.1,385.8,455.7z"
	/>
<path class="st0" d="M419.7,445.9c0.6,0.1,1.2,0.1,1.8,0c0.5,0,0.1-0.1-0.8-0.1S419.2,445.9,419.7,445.9z"/>
<path class="st4" d="M605.1,456.6c-2.1,0.4-7,1.5-10.8,2.4c-3.8,0.9-10.6,2.5-15,3.6s-10.3,2.7-12.9,3.4c-2.6,0.7-8,2.2-11.9,3.4
	s-7.2,2.1-7.5,2.2c-0.3,0.1-0.5,0.3-0.5,0.6c-0.1,0.3-0.5,2.5-0.9,5c-0.5,2.5-1.4,7.6-2.1,11.5s-1.6,9.6-2.1,12.8
	c-0.5,3.2-0.8,6.2-0.8,6.6c0,0.7,0.1,0.8,0.5,0.6c0.3,0,3-0.6,6-1.3s8.8-2,12.8-3s8.8-2.2,10.4-2.6l3-0.9
	c20.3,20.5,31,31.2,36.8,36.9l10.6,10.4c-1.3,3.9-2.8,8.3-4.2,12.4s-2.5,7.4-2.4,7.4c0,0,2.4-0.4,5.3-1s5.3-1.2,5.4-1.3
	c0.1-0.1,1.3-3.5,2.8-7.7s3.4-9.5,4.2-11.9c0.8-2.4,2.7-7.1,4-10.5c1.4-3.4,4.2-10.8,6.4-16.6l4.1-10.4c-3.2-5.5-5.4-9.2-6.9-11.8
	l-2.8-4.6c-7.4-6.4-13.5-11.5-18.2-15.5c-4.7-4-8.6-7.3-8.7-7.5c0.3-1.8,0.7-3.6,1.1-5.4c0.7-2.8,1.2-5.2,1.2-5.4
	c-0.3-0.6-0.7-1.1-1.1-1.6c-0.8-0.9-1.3-1.3-1.6-1.3C609.3,455.8,607.3,456.1,605.1,456.6z"/>
<path class="st3" d="M757.6,498.7v17.4h9v-24h14v22.3c5.2,0,7.2-0.1,7.8-0.2l1.1-0.2V492h13.1c0,14,0.1,19.4,0.2,21.1l0.2,3.1
	c7.9,0,8.6,0,8.7-0.4s0-8-0.1-17.4l-0.2-17h-53.9V498.7z"/>
<path class="st0" d="M362.4,489.3c0,1.6,0,2.1,0.1,1.3s0-2,0-2.8S362.4,487.8,362.4,489.3z M792.8,492.2c1.8,0,4.8,0,6.6,0
	s0.4-0.1-3.3-0.1S790.9,492.1,792.8,492.2L792.8,492.2z M811.8,500.7c0,2.7,0,3.8,0.1,2.4s0-3.6,0-4.9S811.7,497.9,811.8,500.7
	L811.8,500.7z"/>
<path class="st2" d="M570,501.9c-1.9,0.5-6.8,1.8-11,2.8c-4.2,1-10,2.4-12.9,3c-1.8,0.5-3.7,0.8-5.5,1c-0.2-0.1-0.3,0-0.3,0.1
	c-2.9,0.8-5.8,1.5-8.8,2c-4.8,1-10.3,2-12.2,2.3c-1.3,0.3-2.7,0.5-4,0.6c-0.3-0.1-0.5,0-0.5,0c-1,0.3-2,0.5-3,0.6
	c-1.7,0.3-3.1,0.6-3.1,0.6s-1,3.7-2.2,8.2c-1.2,4.5-3,11.4-4,15.5s-2.6,10.6-3.5,14.5s-2.3,10.6-3.1,14.8l-1.6,7.6
	c3.3,3.1,6,5.6,8.1,7.6s5.2,4.8,6.9,6.2s4.4,3.8,6.2,5.3c1.7,1.4,4.9,4.1,7,5.8c2.1,1.7,7.7,6,12.4,9.5c4.7,3.5,8.7,6.3,9,6.3
	c0.3,0,3.7-0.6,7.8-1.3s10.6-2,14.4-2.8c3.8-0.8,10.1-2.2,13.8-3s9.9-2.4,13.8-3.3l7-1.7c2.4-6.4,3.2-8.3,3.2-8.3
	c0.1-0.1,0.2-0.3,0.2-0.5c0-0.2,1.1-3.1,2.4-6.5s3.5-9.4,5-13.4c1.5-4,3.8-10.6,5.1-14.6s2.9-8.5,3.3-9.9l0.8-2.5
	c-15-14.7-25.6-25.3-33.4-33.1L573.4,501L570,501.9z"/>
<path class="st0" d="M789.6,507.8v6.4c-1.5,0.2-1.5,0.2-0.7,0.2h0.9c0-10.1-0.1-13.1-0.1-13.1S789.6,504.3,789.6,507.8z
	 M766.6,509.3v6.9l-9.1,0.1l9.3,0.1c0-10.9-0.1-14-0.2-14S766.6,505.5,766.6,509.3L766.6,509.3z"/>
<path class="st3" d="M247,510.9c0,4,0.1,5.3,0.3,5.5s13,0,28.6-0.1l28.3-0.2v-10.5H247V510.9z"/>
<path class="st2" d="M405.8,511.8c-0.8,3-1.7,7.2-2.1,9.3c-0.4,2.1-1,5.7-1.3,8.1s-0.8,5.8-1,7.6c-0.2,1.8-0.4,4-0.5,5l-0.1,1.7
	c3.4,5.8,5.7,9.4,7.3,11.8s4,5.9,5.5,8s4.1,5.5,5.7,7.6s4.3,5.5,5.9,7.4l2.9,3.5c5.6,0.5,9,0.7,11.1,0.8s7.7,0.2,12.3,0.2h8.3
	c0.2-2.5,0.4-4.8,0.6-6.5s0.6-5.2,1-7.5s1.2-7.4,1.9-11.4s1.5-8.1,1.8-9.3l0.4-2.2c-3.8-4.9-6.2-8.1-7.8-10.3c-1.6-2.2-3.8-5.4-5-7
	s-3.7-5.4-5.6-8.5s-4.5-7-5.7-9l-2.2-3.5c-6.4-0.1-11.6-0.2-15.8-0.4s-9.4-0.4-11.5-0.6s-4.1-0.4-4.3-0.4S406.9,507.3,405.8,511.8z"
	/>
<path class="st0" d="M802.8,514.1c0,1.2,0,1.8,0.1,1.2c0.1-0.7,0.1-1.5,0-2.2C802.8,512.5,802.8,512.9,802.8,514.1z M282.6,516.3
	c4.1,0,10.6,0,14.6,0c4,0,0.6-0.1-7.4-0.1C281.8,516.3,278.5,516.3,282.6,516.3L282.6,516.3z"/>
<path class="st2" d="M682.2,520.1c-0.7,0.5-4.5,2.8-8.6,5.2s-8.5,5-9.9,5.8c-1.4,0.8-4.9,2.8-7.9,4.4s-5.4,3-5.5,3.1
	s-0.9,2.7-1.7,5.8c-0.8,3.1-3,10.4-4.8,16.2s-3.2,10.7-3.3,10.9c-0.1,0.2,0.9,1,3.1,2.3c1.7,1.1,6.5,4.1,10.5,6.7l7.3,4.8
	c2.1-1.2,3.8-2.2,5.2-3s6.6-4,11.7-7.2s9.6-6,10.2-6.4c1-0.7,1.3-1,2.6-3.7c0.8-1.6,2.2-4.7,3.1-6.8s2.2-5.2,2.8-6.7
	s1.6-4.1,2.2-5.8s1.6-4.7,2.3-6.8c0.5-1.3,0.9-2.6,1.1-3.9c0-0.1-1.3-1.3-2.8-2.7c-1.5-1.4-5.7-4.9-9.2-7.8s-6.7-5.3-6.9-5.3
	C683.1,519.5,682.6,519.8,682.2,520.1z"/>
<path class="st0" d="M282.4,557.2l-2.8,8.6c-14,0-17.1,0.1-17.2,0.3c2.2,2,4.5,3.9,6.9,5.6c3.9,2.9,7,5.5,7,5.6s-1.3,4.1-2.9,8.9
	s-2.9,8.8-2.9,8.8s0.1,0.1,0.2,0.1c1-0.6,1.9-1.3,2.8-2c1.4-1.1,4.7-3.6,7.3-5.5l4.6-3.4c11,8.1,14.3,10.6,14.5,10.7
	c0.1,0.1,0.3,0.2,0.4,0.2c0.1-0.1-1.2-4.1-2.9-9c-2.9-8.7-2.9-8.9-2.5-9.3c0.3-0.2,3.4-2.6,7-5.4s6.5-5.2,6.6-5.4s-1.8-0.3-8.6-0.3
	h-8.6c-4.4-13.3-5.8-17.2-5.9-17.2C284.3,551.4,283.3,554.3,282.4,557.2z M770.3,558.7l-2.9,8.6l-17.6,0.3c11,8.5,14.2,10.9,14.3,11
	s-1.2,4.1-2.9,9s-2.8,8.9-2.8,9c0.2,0,0.3,0,0.4-0.2c0.2-0.1,3.5-2.6,7.4-5.5l7.1-5.2c11.5,8.6,14.9,11.1,15,11.1s-1.3-4.1-2.9-9
	l-3-8.9l14.4-11.1l-17.5-0.1c-4.3-13.5-5.7-17.4-5.9-17.4C772.2,553,771.2,555.8,770.3,558.7L770.3,558.7z"/>
<path class="st4" d="M602.3,600l-1.6,4.2c-10.9,2.7-17.1,4.2-20.8,5.1s-9.9,2.2-13.8,3c-3.9,0.8-10.3,2-14.4,2.8s-7.6,1.3-7.8,1.3
	c-0.5-0.1-1-0.4-1.4-0.7c-0.3-0.3-0.7-0.5-1-0.7c0,0-0.4,2.1-0.7,4.5s-0.7,5.2-0.7,6L540,627c5.8,3.2,8.8,4.8,10.3,5.6l2.8,1.5
	l9.1-1.7c7.2,4.3,10.9,6.5,12.9,7.7l3.6,2c6.8-1.3,11.1-2.2,13.9-2.9s6.8-1.6,8.9-2.2c1.3-0.3,2.6-0.7,3.9-1.2
	c0.1-0.1,1.6-2.7,3.3-5.7s5.1-9,7.4-13.2s4.2-7.7,4.2-7.7s-1.8-1.5-4-3.3l-7.9-6.6c-2.2-1.8-4.1-3.3-4.2-3.3
	C603.4,597.1,602.8,598.6,602.3,600z"/>
<path class="st2" d="M653,601.6c-2.2,1.2-6.6,3.5-9.8,5.2l-5.8,3c-6.6,6.7-10.3,10.3-12.4,12.3l-3.9,3.8c1.1,1.7,2,3.5,2.8,5.4
	c0.2,0.7,0.3,0.8,0.9,0.7c0.4-0.1,2.2-0.8,4.2-1.5c1.9-0.7,5.3-2.1,7.4-3s4.8-2.1,5.8-2.7c1.8-0.9,2.5-1.5,7-6
	c2.8-2.8,6.6-6.6,8.5-8.6l3.5-3.6c-1.5-2.9-2.3-4.5-2.9-5.5c-0.3-0.6-0.7-1.2-1.1-1.7L653,601.6z M425.5,604.2
	c-0.9,0.9-2.2,2.5-3,3.4s-1.8,2.4-2.2,3l-0.8,1.2c4.8,5.1,7.7,8.1,9.6,10s4.8,4.7,6.4,6.2s4.4,3.8,6,5.1s4.4,3.4,6.2,4.7
	c1.9,1.5,4,2.7,6.3,3.7c1.7,0.7,5.9,2.4,9.5,3.8s8.3,3.2,10.6,4s5.8,2,7.7,2.5s4.5,1.4,6,1.8s2.6,0.8,2.7,0.8
	c0.4-0.3,0.7-0.7,0.9-1.2c0.4-0.6,1.5-1.9,2.3-2.9c0.5-0.6,1.1-1.2,1.5-1.8c0-0.1-1.9-1.3-4.2-2.7s-5.7-3.6-7.6-4.9
	s-4.2-2.9-5.3-3.8s-3.2-2.5-4.8-3.7s-4.2-3.7-6.1-5.5c-2-2.2-4.4-4-7.1-5.3c-2.1-1.2-5.8-3.2-8.1-4.5s-5.7-3.3-7.5-4.4s-5.4-3.3-8-5
	s-5.7-3.7-6.9-4.5c-0.7-0.6-1.5-1.1-2.3-1.5C426.7,603,426.1,603.6,425.5,604.2z"/>
<path class="st0" d="M649.1,618.9l-1.6,1.6c2.5-2.4,3.3-3.2,3.3-3.2c0,0,0-0.1-0.1-0.1C650.7,617.3,650,618,649.1,618.9z"/>
<path class="st3" d="M327.2,623.4c0.1,0,2.5,3.1,5.4,6.9c3.8,5,5.5,7.5,6.4,9.2c1.1,2.3,1.1,2.3,1.1,4.7c0,2.1-0.1,2.6-0.6,3.5
	c-0.4,0.7-0.9,1.4-1.4,2c-0.5,0.5-2,1.8-3.3,2.8c-1.3,1-3,2.2-3.7,2.6c-0.7,0.4-1.4,0.8-2.2,1c-0.8,0.2-1.7,0.3-2.5,0.4
	c-1.2,0-1.9-0.2-4.4-1.3l-0.7,2.4c-0.4,1.3-1.3,4.4-2.1,6.9c-0.8,2.5-1.5,4.7-1.5,4.9c-0.1,0.1-1.5-1.4-6-7.5l3.9-13.4l-1.4-1.8
	c-0.5-0.7-1-1.3-1.6-1.9c-1.6,0.9-3.1,2-4.5,3.1c-3.6,2.7-4.3,3.2-4.5,2.8c-0.3-0.3-1.3-1.7-2.5-3.3c-0.8-1-1.5-2-2.1-3.2
	c0.1-0.1,6.4-4.9,14.1-10.6S327.1,623.4,327.2,623.4z M318.6,640.6c0.6,1.1,1.4,2.2,2.2,3.2c0.9,1.3,1.9,2.4,3,3.6
	c0.4,0.3,0.8,0.6,1.3,0.8c0.5,0.1,0.9,0,1.4-0.2c0.9-0.5,1.8-1,2.7-1.7c0.8-0.6,1.6-1.3,2.4-2c0.4-0.4,0.5-1,0.5-1.6
	c0-0.6-0.2-1.1-0.4-1.6c-0.2-0.4-1.4-2.1-2.6-3.7c-0.7-1-1.5-2-2.4-2.9c-1.4,0.9-2.8,1.8-4.1,2.8
	C321.1,638.3,319.8,639.4,318.6,640.6L318.6,640.6z M735.4,631.3c0.8,0.1,1.7,0.3,2.4,0.7c1.1,0.6,2.1,1.3,3.1,2
	c1.3,0.9,2.5,1.9,3.6,2.9c0.9,0.8,1.7,1.8,2.3,2.9c0.5,0.9,0.7,1.9,0.7,2.9c0,1-0.1,2-0.4,2.9h7.2c4,0,7.3,0,7.3,0.1
	s-1.3,1.8-5.8,7.6h-2.6c-1.5,0-4.5,0.1-11,0.4l-1.2,1.6c-0.7,0.8-1.3,1.7-1.4,1.8s1,1.2,3.9,3.5c2.2,1.7,4.1,3.2,4.1,3.3
	s-1.1,1.6-5.1,6.7l-11.3-8.8c-6.2-4.8-12.3-9.5-15.5-11.9l5-6.5c2.8-3.6,5.9-7.4,6.9-8.5c1-1,2-1.8,3.2-2.6c0.7-0.4,1.5-0.7,2.3-0.9
	C733.9,631.3,734.7,631.2,735.4,631.3z M728.8,644c-1.3,1.7-2.5,3.2-2.5,3.3s1.8,1.5,4,3.1l3.9,2.9c2.9-3.8,4.1-5.5,4.5-6
	c0.4-0.6,0.7-1.3,0.8-2c0.1-0.5,0-1-0.2-1.5c-0.6-0.8-1.2-1.5-2-2.1c-0.7-0.6-1.5-1.1-2.3-1.6c-0.5-0.2-0.9-0.3-1.5-0.3
	c-0.6,0-1.1,0.2-1.6,0.6C730.9,641.5,729.8,642.7,728.8,644z"/>
<path class="st2" d="M558.2,633c-1.8,0.4-3.7,0.7-4.4,0.8c-0.5,0-0.9,0.1-1.3,0.3c-0.1,0.1-4.2,0.8-9.1,1.6l-9.7,1.6l-0.8,0.1
	c0.3,8.5,0.4,9.4,1.1,12.3c0.2,1.2,0.6,2.3,0.9,3.4c0,0.1,2.6,0.9,5.7,2c3,1.1,7.2,2.2,9.2,2.8s5.1,1.3,6.9,1.7l3.3,0.8
	c4.5-1,7.7-1.8,10-2.3c2.3-0.6,5.3-1.5,6.7-1.8c0.9-0.2,1.8-0.5,2.6-0.9c0.2-0.5,0.4-1.1,0.5-1.6c0.2-0.8,1-3.2,1.9-5.3l1.5-3.8
	c-8.5-4.8-13.2-7.5-16-9.2c-2.8-1.7-5.3-3.1-5.4-3.1C561.7,632.3,560.1,632.6,558.2,633z"/>
<path class="st0" d="M749.3,653.5c0.9,0.1,1.8,0.1,2.7,0c0.7,0,0-0.1-1.5-0.1S748.4,653.5,749.3,653.5z"/>
<path class="st3" d="M353.1,658.2l1.1,1c0.6,0.5,4.5,4.2,8.6,8.1l7.5,7.2l-4.8,4.8l-10.8-10.4l-4.4,4.5l3.6,3.5
	c2,1.9,4.3,4.1,6.5,6.2l-2.3,2.3c-0.8,0.8-1.6,1.6-2.5,2.3c-0.1,0-2.5-2.1-10.1-9.4l-5,5.4l2.8,2.7c1.6,1.5,4,3.9,8.1,7.8l-2.3,2.4
	c-0.8,0.8-1.6,1.6-2.5,2.2c-0.1,0-3.9-3.7-16.9-16l1.5-1.6c0.8-0.9,6.1-6.4,11.7-12.3L353.1,658.2z M699,667.2
	c0.2,0.1,5.3,2.9,11.3,6.2s12.8,7.2,15.2,8.5c1.5,0.8,2.9,1.6,4.3,2.6c-2,2.1-4.1,4-6.3,5.8l-2.8-1.7c-1.5-0.9-2.9-1.7-3-1.8
	c-1.5,1.1-3,2.4-4.4,3.7c-2.3,2.1-4.4,3.9-4.6,4.1c-0.4,0.4-0.4,0.5,2.5,6.7l-1.3,1.2c-0.7,0.7-2.2,2-5.3,4.7l-0.9-2.1
	c-0.5-1.2-3.6-8.5-7-16.3s-6.2-14.3-6.1-14.4c1.3-1.4,2.6-2.6,4-3.8C697,668.5,698.8,667.2,699,667.2L699,667.2z M702.4,682.7l3,6.4
	c5.4-5,6.1-5.7,5.8-5.9s-2.7-1.7-5.6-3.5s-5.5-3.4-5.8-3.6s-0.5-0.3-0.5-0.1S700.7,679.1,702.4,682.7L702.4,682.7z M382.4,684.2
	c0.2,0.1,1.7,1.1,3.5,2.3c1.1,0.7,2.1,1.5,3.1,2.3c0,0.1-3.2,4.8-7.1,10.5s-7.4,10.7-8.3,11.8l12.2,8.5l-1.4,2
	c-0.8,1.2-1.7,2.4-2.5,3.5l-9.4-6.5c-5.2-3.5-9.4-6.6-9.4-6.8s4.2-6.4,9.5-13.9C379.4,687.8,382.1,684.1,382.4,684.2L382.4,684.2z
	 M676.1,686.2l3.7,5.7l-1.4,0.9c-0.8,0.5-2.7,1.7-7,4.6l1.3,2c0.7,1.1,3.8,5.9,7,10.7s5.8,9,6.5,10l-3.5,2.3c-2.6,1.7-3.5,2.2-3.7,2
	s-3.5-5.3-7.4-11.4c-4.9-7.6-7.3-11-7.5-10.9s-2,1.3-4.1,2.6s-3.9,2.5-4,2.5c-0.7-0.8-1.2-1.6-1.7-2.5c-0.9-1.3-1.7-2.6-1.8-2.8
	s2-1.7,7.8-5.5c4.4-2.8,9.7-6.3,11.9-7.7L676.1,686.2z M413.6,704.2c0.1,0,1.7,0.8,3.7,1.8c2.7,1.4,3.5,2,3.5,2.2s-3.5,6.9-7.7,14.9
	s-7.6,14.6-7.7,14.7s-1.8-0.7-7.5-3.7l2.4-4.5c1.3-2.5,4.8-9.3,7.8-15C411,708.9,413.6,704.1,413.6,704.2z M641.1,708.3
	c0.2,0,0.6,0.8,1.2,2.8c0.4,1.6,0.8,2.9,0.8,3.1s-0.6,0.4-1.3,0.6s-2.4,0.7-3.8,1.2c-1.6,0.5-3.2,1.1-4.7,1.8c-1,0.4-1.9,1-2.7,1.7
	c-0.3,0.4-0.5,0.8-0.5,1.3c0.1,0.8,0.4,1.5,0.7,2.2c0.5,1,0.9,1.6,1.4,1.8c0.5,0.2,1.5,0.1,5-0.5c2.4-0.4,5.3-0.8,6.4-0.9
	c1.1-0.1,2.3-0.1,3.4,0.2c0.9,0.2,1.7,0.7,2.2,1.3c0.7,0.9,1.3,1.8,1.9,2.9c0.6,1.1,1.1,2.3,1.5,3.5c0.4,1.1,0.6,2.2,0.6,3.4
	c0.1,0.9-0.1,1.8-0.4,2.7c-0.3,0.6-0.7,1.1-1.1,1.7c-0.6,0.7-1.3,1.3-2.1,1.9c-1.4,0.9-2.9,1.8-4.4,2.5c-1.6,0.8-3.9,1.7-5.1,2.1
	c-1.3,0.4-2.6,0.7-3.9,1c-1.5,0.3-3,0.5-4.6,0.7l-0.6-3c-0.3-1.6-0.5-3-0.5-3c0,0,1.3-0.3,2.7-0.6c1.6-0.3,3.2-0.8,4.7-1.3
	c1.2-0.4,2.8-1,3.8-1.5c0.9-0.4,1.7-1,2.4-1.6c0.5-0.4,0.7-1.1,0.5-1.7c-0.2-0.7-0.4-1.5-0.8-2.1c-0.3-0.6-0.7-1.2-1.3-1.6
	c-0.5-0.3-1.1-0.4-1.6-0.4c-1.5,0.1-3,0.4-4.5,0.7c-1.9,0.4-4.3,0.8-5.3,0.9c-1.1,0.1-2.1,0.1-3.2-0.2c-0.9-0.2-1.8-0.7-2.4-1.4
	c-0.9-0.9-1.6-2-2.1-3.1c-0.6-1.2-1.1-2.3-1.5-3.6c-0.3-1-0.5-2-0.5-3.1c0-0.9,0.1-1.7,0.5-2.5c0.4-0.7,0.8-1.3,1.3-1.9
	c0.7-0.7,1.5-1.3,2.4-1.9c0.9-0.6,2.4-1.5,3.4-2s2.9-1.3,4.1-1.8s3.4-1.2,4.7-1.6c1.3-0.4,2.5-0.7,2.7-0.8
	C640.7,708.2,640.9,708.2,641.1,708.3L641.1,708.3z M443.9,717.9c0.1,0,2.2,0.7,4.6,1.6s4.8,1.7,5.9,2.2l-0.1,11.7
	c-0.1,6.5-0.2,14.4-0.5,23.8l-3-1c-1.7-0.5-3.5-1.2-5.1-1.8l0.3-6.9l-1-0.4c-0.6-0.2-3.3-1.2-10.8-3.8l-2,2.8
	c-0.7,1-1.4,1.9-2.3,2.7c-0.1,0-2-0.7-4.1-1.4c-2.6-0.9-3.8-1.5-3.7-1.6s4.4-5.8,9.6-12.5l10.7-13.8
	C442.9,719,443.3,718.4,443.9,717.9z M438.4,738.1c0.2,0.1,1.9,0.8,3.9,1.5c1.2,0.5,2.4,0.9,3.7,1.2c0.1-0.1,0.2-3.3,0.5-7.2
	s0.3-7.2,0.3-7.2s-2,2.6-4.3,5.8C439.5,736,438.2,738,438.4,738.1z M584,728.1c0.6,0,0.6,0,1.2,3.2c0.3,1.1,0.4,2.2,0.5,3.3
	c0,0-3.3,0.6-7.2,1.3s-7.2,1.3-7.3,1.4c0.2,2,0.5,4.1,0.9,6.1l0.9-0.2c0.5-0.1,3.5-0.6,12.8-2.2l0.2,1.2c0.1,0.7,0.4,2.2,0.6,3.3
	c0.1,0.7,0.2,1.4,0.3,2.1c0,0-3,0.5-6.6,1.2c-3.6,0.6-6.7,1.2-6.8,1.2c-0.1,0.1,0,1.5,0.3,3.7c0.3,2,0.6,3.6,0.6,3.6
	s3.4-0.5,7.4-1.3s7.4-1.3,7.4-1.2c0,0,0.3,1.5,0.7,3.2c0.5,2.5,0.5,3.2,0.3,3.3c-0.2,0.1-3.4,0.7-7.2,1.3s-8.9,1.6-11.2,2
	c-2.4,0.4-4.4,0.7-4.4,0.7s-1.2-6.3-2.5-14s-2.6-15.1-2.9-16.5c-0.2-0.9-0.3-1.8-0.4-2.7l7.8-1.4c4.3-0.7,9.2-1.6,10.9-1.9
	S583.6,728.1,584,728.1L584,728.1z M478.1,728.4c0.4,0.1,2.6,0.4,9.5,1.5l2.6,7.9c1.5,4.3,3.4,9.8,4.2,12.3c0.4,1.5,1,2.9,1.6,4.2
	c0.1-0.1,1-5.1,1.9-11.2s1.7-11.1,1.8-11.1s1.8,0.2,3.9,0.5s3.9,0.5,3.9,0.5s-0.3,2.4-0.8,5.4s-1.7,10.4-2.6,16.7
	s-1.9,11.4-1.9,11.4s-2.3-0.3-5.1-0.7s-5-0.8-5.1-0.9s-2-5.4-4.3-11.8s-4.3-11.6-4.3-11.5s-0.9,4.9-1.8,10.8
	c-1.6,9.9-1.7,10.6-2.1,10.6s-1.8-0.2-3.4-0.5s-3.2-0.5-3.5-0.6c-0.5-0.1-0.5-0.2-0.4-1c0.1-0.5,1.2-7.8,2.5-16.1s2.5-15.5,2.6-15.8
	S477.5,728.3,478.1,728.4L478.1,728.4z"/>
<path class="st0" d="M454.2,732.7c0,1.1,0.1,1.6,0.1,1c0-0.7,0-1.4,0-2.1C454.2,731.1,454.2,731.6,454.2,732.7z"/>
<path class="st3" d="M533,733.3c-0.4,0.1-1.4,0.3-2.2,0.5c-1,0.3-1.9,0.6-2.9,1.1c-1.8,0.9-3.3,2.4-4.2,4.2l-0.6,1.4
	c-0.1,14,0,18,0.1,18.9c0.2,1,0.5,1.9,0.9,2.8c0.5,0.9,1.1,1.7,1.8,2.5c0.9,0.8,1.8,1.4,2.9,1.9c1.1,0.4,2.2,0.8,3.3,1
	c1.6,0.2,3.1,0.3,4.7,0.3c1.9,0,3.8-0.1,5.6-0.3c1.5-0.2,3.2-0.5,4-0.6c1.1-0.2,1.2-0.3,1.2-0.8c-0.1-0.3-0.4-1.8-0.7-3.3
	c-0.4-2-0.7-2.7-0.9-2.7s-1.7,0.2-3.3,0.4c-1.9,0.2-3.7,0.4-5.6,0.4c-2.2,0-2.8-0.1-3.6-0.5c-0.6-0.3-1.1-0.8-1.5-1.3
	c-0.4-0.7-0.5-1.5-0.7-7.8c-0.2-2.7-0.2-5.5,0.1-8.2c0.1-0.7,0.4-1.3,0.9-1.8c0.4-0.4,0.9-0.7,1.4-0.9c1.4-0.2,2.7-0.3,4.1-0.2
	c1.9,0,4.5,0.1,5.8,0.3c0.8,0.1,1.6,0.2,2.5,0.2c0,0,0.3-1.6,0.5-3.3s0.5-3.3,0.5-3.3c0,0-1.5-0.2-3.2-0.4c-2.2-0.2-4.4-0.4-6.6-0.4
	C535.2,733.2,533.4,733.3,533,733.3z"/>
<path class="st0" d="M522.7,744.4c0,1.2,0.1,1.7,0.1,1.2c0-0.7,0-1.5,0-2.2C522.8,742.8,522.7,743.2,522.7,744.4z M454,753.3
	c0,1.1,0,1.6,0.1,0.9c0.1-0.7,0.1-1.3,0-2C454,751.6,453.9,752.1,454,753.3L454,753.3z"/>
</svg>
